<svg id="Capa_1" data-name="Capa 1" xmlns="http://www.w3.org/2000/svg" viewBox="0 0 309.04 160.76"><defs><style>.cls-1{fill:#fff;}</style></defs><title>cochera-white</title><path class="cls-1" d="M355,380.53c4.11,0,8.1-.08,12.09,0a65.24,65.24,0,0,1,10.29.64c5.49,1,8.73,4.64,9.65,10.13.72,4.29.48,8.55-2.2,12.2a37.1,37.1,0,0,1-4.41,4.35l8.1,10.21c-1.82,0-3.33,0-4.84,0-2.14,0-4.6.56-6.33-.3s-2.84-3-3.85-4.85c-1.59-2.88-3.76-4.14-7-3.51a13.78,13.78,0,0,1-2.15,0V418H355Zm9.4,8.23v13c3.24-.12,6.45.51,9.52-.82a5.89,5.89,0,0,0,3.51-6c-.29-3.35-1.82-5.67-4.62-6A71.29,71.29,0,0,0,364.42,388.76Z" transform="translate(-154.21 -284.5)"/><path class="cls-1" d="M212.41,418.51c-9,0-16.77-5.49-19.33-13.48-3-9.27,1.52-19,10.71-23.18,10.26-4.7,23,.16,27,10.31,5,12.64-4,25.07-16.52,26.25C213.6,418.48,212.9,418.48,212.41,418.51Zm-.27-8.68a10.34,10.34,0,0,0,10.47-10.42,10.39,10.39,0,1,0-20.77-.34C201.85,405.16,206.3,409.81,212.14,409.83Z" transform="translate(-154.21 -284.5)"/><path class="cls-1" d="M301.23,418V406.33h-15V418h-9.06V380.65h9v17.51h14.95V380.62h9.1V418Z" transform="translate(-154.21 -284.5)"/><path class="cls-1" d="M461.92,383.14l-3.67,7.09c-3.27-.7-6.36-1.46-9.49-2a12.9,12.9,0,0,0-4.15.18,2.53,2.53,0,0,0-2.19,2.35,2.35,2.35,0,0,0,1.66,2.58c2.05.74,4.19,1.25,6.27,1.92a65.49,65.49,0,0,1,7.34,2.53c7.67,3.48,6.52,13.45,1.92,17.24a16.57,16.57,0,0,1-10.89,3.53c-5.12,0-10.18-.49-14.84-2.92-.31-.16-.63-.3-.94-.45-.13-.07-.25-.17-.56-.38l3.36-7a28.39,28.39,0,0,0,12.56,2.73,8.33,8.33,0,0,0,3.49-.62,4.08,4.08,0,0,0,1.86-2.24,2.11,2.11,0,0,0-1.53-2.46c-1.86-.7-3.77-1.26-5.67-1.86-2.47-.78-5-1.37-7.4-2.35a9.24,9.24,0,0,1-6.19-9.48,10.59,10.59,0,0,1,6.44-9.84c3.63-1.72,7.5-1.88,11.44-1.43A40.51,40.51,0,0,1,461.92,383.14Z" transform="translate(-154.21 -284.5)"/><path class="cls-1" d="M272,387.34l-7.06,5.87c-5.26-5.17-11.27-5.75-15.52-1.59-3.93,3.85-4,11.31-.08,15.26,4.22,4.29,10,3.77,15.62-1.5l7,5.92c-3.94,5.84-13.53,8.69-21.3,6.42a19.52,19.52,0,0,1-14-18.34c-.13-8,5.49-15.53,13.18-18.2C258.49,378.17,268,381.8,272,387.34Z" transform="translate(-154.21 -284.5)"/><path class="cls-1" d="M189.56,387.34l-7.06,5.87c-5.55-5.21-11.59-5.72-15.7-1.4-3.86,4.05-3.72,11.46.28,15.24,4.4,4.17,10.28,3.57,15.4-1.69l7,5.91c-3.87,5.54-12.49,8.74-21,6.52a19.41,19.41,0,0,1-14.34-18.22c-.34-7.63,5.16-15.39,12.54-18.17C175.74,378,185.37,381.67,189.56,387.34Z" transform="translate(-154.21 -284.5)"/><path class="cls-1" d="M429.56,418.07c-3.16,0-6.06.05-8.95,0a1.93,1.93,0,0,1-1.29-1.08c-2.91-6.63-5.75-13.28-8.61-19.93-.19-.45-.41-.88-.74-1.58-.35.74-.61,1.24-.84,1.76-2.8,6.51-5.63,13-8.37,19.54a1.86,1.86,0,0,1-2.1,1.36c-2.68-.08-5.37,0-8.24,0,.23-.58.37-1,.55-1.38q8.07-17.4,16.12-34.79a2.27,2.27,0,0,1,2.24-1.44c2.2-.25,3.18.62,4.07,2.6,5,11.06,10.18,22,15.29,33C429,416.68,429.2,417.27,429.56,418.07Z" transform="translate(-154.21 -284.5)"/><path class="cls-1" d="M409.17,352.37c-2.05.7-4.08,1.46-6.15,2.1a194.39,194.39,0,0,1-34.86,7.19c-6.31.74-12.64,1.31-19,.57-7.29-.85-14.57-1.83-21.84-2.81-3.61-.49-7.2-1.15-10.81-1.64-1.41-.2-2.12-.94-2.06-2.26.08-2,.3-4,.52-6,.72-6.58.69-13.07-1.83-19.44.35.52.72,1,1,1.55,3.25,5.3,4.37,11.2,4.87,17.28.06.74.08,1.5.15,2.24.24,2.73.24,2.74,2.94,3.26.72.14,1.45.25,2.33.4,1-5.33.68-10.53.3-15.87.31.56.6,1.12.93,1.67a22.64,22.64,0,0,1,3.09,14.1c-.09,1,.34,1.21,1.12,1.34,6.94,1.15,13.85,2.52,20.83,3.41,8.52,1.07,17.05.14,25.56-.73a151.44,151.44,0,0,0,32.36-6.61,1.48,1.48,0,0,1,.42,0Z" transform="translate(-154.21 -284.5)"/><path class="cls-1" d="M308.66,360.51a18.67,18.67,0,0,1-9,.44c-9.91-1.44-16.26-10.11-16.85-19.77a27.86,27.86,0,0,1,2.4-14.32c2.3-4.7,5.78-8.08,11-9.43a4.18,4.18,0,0,1,.8,0c-3,2.17-5.5,4.49-6.88,7.8,4.39-4.35,9.24-6,15-2.6-.3,0-.6,0-.9,0-5.22-.68-9.17,1.45-12,5.65-5.46,8-4.45,20.08,2.12,27.13,3.67,3.93,8.28,5.36,13.52,5.17Z" transform="translate(-154.21 -284.5)"/><path class="cls-1" d="M211.45,307c2.71-1.39,4.83-.63,6.73.77,3.42,2.54,5.59,6.08,7.33,9.89,2.17,4.78,2.6,9.92,2.94,15.06.21,3.1,1.44,4.55,4.45,5.24l46.85,10.76a2.52,2.52,0,0,1,1.31.66c-4.29-.62-8.59-1.2-12.88-1.86q-19.55-3-39.08-6.1c-2.62-.41-4.91-3.26-5.09-5.95-.33-4.62-.64-9.26-1.28-13.85a21.73,21.73,0,0,0-3.87-9.65A11.41,11.41,0,0,0,211.45,307Z" transform="translate(-154.21 -284.5)"/><path class="cls-1" d="M296.36,304.57c-4.05.78-24.29.05-26.62-.89,0-1.94.62-3,2.27-3.35,2.88-.55,5.8-1,8.73-1.29a3.79,3.79,0,0,1,3.93,1.88c1.16,1.85,3.38,2.36,6.06,1.56a42.53,42.53,0,0,0-2.6-3.45c-5.07-5.57-11.62-7-18.81-6.6a62.66,62.66,0,0,0-25.22,7.5,10.73,10.73,0,0,0-.91.65l24.23,4.9-.05.37c-.94-.09-1.89-.15-2.83-.29q-12.27-1.9-24.55-3.85a3.27,3.27,0,0,1-2.53-2.32,5.58,5.58,0,0,1,.8-.49c9-3.83,18.15-7.06,27.85-8.5s18.18,1.33,25,8.51C292.88,300.7,294.53,302.57,296.36,304.57Z" transform="translate(-154.21 -284.5)"/><path class="cls-1" d="M316.7,418v-7.87h32.64V418Z" transform="translate(-154.21 -284.5)"/><path class="cls-1" d="M324.71,307.36c12.51.3,24.9.23,37.13-2.38l.24-.48a11.36,11.36,0,0,0-2-2c-4.16-2.37-8.37-4.64-12.56-6.93a2.51,2.51,0,0,1-1.15-.92c1.58.56,3.2,1,4.74,1.69,5.81,2.52,11.59,5.12,17.39,7.66a12.86,12.86,0,0,0,2.14.63c15.7,3.6,29.53,10.66,40.82,22.31,1.31,1.34,2.39,2.9,3.58,4.37l-.16.51-4.68.85c.17-1,.24-1.7.41-2.35a3.32,3.32,0,0,0-1.16-3.54,63.2,63.2,0,0,0-23.12-14.07c-6.17-2.18-12.37-4.3-18.89-5.11a19.88,19.88,0,0,0-6.38.41,74.56,74.56,0,0,1-20,1c-5-.32-10-.92-15.07-1.41A10.7,10.7,0,0,1,324.71,307.36Z" transform="translate(-154.21 -284.5)"/><path class="cls-1" d="M349.09,380.65v7.75H316.94v-7.75Z" transform="translate(-154.21 -284.5)"/><path class="cls-1" d="M199.94,440.8v4h-4.67v-19c3.85.16,7.65.09,11.39.54a5.41,5.41,0,0,1,4.63,4.73c.55,2.86.34,5.61-2.07,7.71-.33.29-.71.54-1.2.9l4,5.21a30.46,30.46,0,0,1-5.37-.1c-.72-.13-1.39-1.23-1.84-2C203.8,440.83,202.33,440.06,199.94,440.8Zm.12-10.73v6.73a32.47,32.47,0,0,0,4.24-.44,2.91,2.91,0,0,0,2.24-3.4,3,3,0,0,0-2.91-2.88C202.49,430,201.34,430.07,200.06,430.07Z" transform="translate(-154.21 -284.5)"/><path class="cls-1" d="M407,349.81c-2.35.74-4.68,1.53-7,2.21A114.31,114.31,0,0,1,379,355.58c-7.91.74-15.82,1.74-23.78,1.18-4.65-.33-9.26-1.2-14.11-1.86a14.24,14.24,0,0,1,.52-1.5c1.38-2.66,2.79-5.3,4.14-8a4.06,4.06,0,0,1,2.62-2.25c1.67-.47,3.31-1.06,5.38-1.74a31.32,31.32,0,0,0-1.89,2.69,47,47,0,0,0-2.51,5.08c-.72,1.83-.59,2.21,1.37,2.61a57,57,0,0,0,9.6,1.38c7.24.2,14.5.37,21.72-.05,5.81-.34,11.57-1.55,17.35-2.42,2.49-.37,5-.87,7.45-1.3Z" transform="translate(-154.21 -284.5)"/><path class="cls-1" d="M306.89,439.66,311,444.9c-2,0-3.58,0-5.19,0-.32,0-.67-.37-.92-.65a7.48,7.48,0,0,1-1.26-1.67c-1-2.07-2.65-2.27-4.79-1.79,0,.93-.06,1.92,0,2.9s-.36,1.26-1.3,1.28c-3.42.07-3.42.1-3.42-3.35,0-4.74,0-9.49,0-14.23,0-1.1.3-1.5,1.44-1.45,2.89.12,5.79,0,8.68.2,3.21.22,5.16,1.87,5.92,4.63.91,3.32,0,6.58-2.43,8.37Zm-8-3c2.22-.17,4.58.59,6.07-1.65a3.11,3.11,0,0,0-.2-3.78c-1.57-2-3.8-1-5.87-1.22Z" transform="translate(-154.21 -284.5)"/><path class="cls-1" d="M339.46,445.13a9.81,9.81,0,0,1-10-9.9c0-5.2,4.65-9.51,10.17-9.47a9.93,9.93,0,0,1,10,9.79C349.69,440.79,345.06,445.14,339.46,445.13Zm-5.1-9.68a5.24,5.24,0,0,0,5.13,5.35,5.33,5.33,0,0,0,0-10.66A5.27,5.27,0,0,0,334.36,435.45Z" transform="translate(-154.21 -284.5)"/><path class="cls-1" d="M223.78,445.13a9.79,9.79,0,0,1-10.13-9.92c0-5.15,4.53-9.39,10-9.44a9.93,9.93,0,0,1,10.18,9.8C233.86,440.76,229.27,445.12,223.78,445.13Zm-5.23-9.77a5.24,5.24,0,0,0,5.19,5.44,5.34,5.34,0,0,0,5.25-5.28,5.4,5.4,0,0,0-5.17-5.38A5.29,5.29,0,0,0,218.55,435.36Z" transform="translate(-154.21 -284.5)"/><path class="cls-1" d="M303.35,304.15c-1.69-1.57-3.49-3.38-5.45-5-3-2.47-6-4.93-9.21-7.16-5.73-4-12.32-4.65-19.06-4.31a110.11,110.11,0,0,0-19.54,2.82.8.8,0,0,1-.73-.19,156.75,156.75,0,0,1,78.27-1.62A312.48,312.48,0,0,0,287,288c3.08,2.49,6.22,4.83,9.13,7.43A36.91,36.91,0,0,1,303.35,304.15Z" transform="translate(-154.21 -284.5)"/><path class="cls-1" d="M320.1,403v-7.44c.48,0,.95-.12,1.42-.12,7.65,0,15.3,0,22.94,0,1.25,0,1.67.35,1.6,1.61-.1,1.69-.05,3.4,0,5.09,0,.74-.21,1.11-1,1.11l-24.44,0A2,2,0,0,1,320.1,403Z" transform="translate(-154.21 -284.5)"/><path class="cls-1" d="M254.64,426.1a3.27,3.27,0,0,1,.46-.14c4.1-.26,4.08-.26,4.1,3.82,0,2.5,0,5,.14,7.5s1.47,3.61,3.88,3.6,3.75-1.19,3.89-3.65c.16-2.79.06-5.6.08-8.4V426h4.53c0,.41.12.84.12,1.27q0,4.8,0,9.6c0,3.39-1.18,6.18-4.5,7.44-3.64,1.38-7.37,1.43-10.4-1.39a7.42,7.42,0,0,1-2.2-4.41C254.44,434.44,254.64,430.28,254.64,426.1Z" transform="translate(-154.21 -284.5)"/><path class="cls-1" d="M241.47,440.74v4.11h-4.58V425.78a100,100,0,0,1,10.74.6c3.2.5,5,3.56,4.79,7.17s-2.1,6.06-5.49,6.7C245.23,440.56,243.47,440.57,241.47,440.74ZM241.6,430v6.63c2,0,4,.34,5.28-1.5a3.18,3.18,0,0,0-.07-3.8C245.53,429.48,243.54,430.15,241.6,430Z" transform="translate(-154.21 -284.5)"/><path class="cls-1" d="M386.27,440.89h9.53v3.92H379.12a13.56,13.56,0,0,1,1.15-2.93c2.8-3.88,5.7-7.69,8.75-11.78h-9.08V426h15.77a3.29,3.29,0,0,1-.64,3.21C392.17,433,389.35,436.79,386.27,440.89Z" transform="translate(-154.21 -284.5)"/><path class="cls-1" d="M432.36,440.92h9.42v3.89H425.22a11.76,11.76,0,0,1,1.07-2.92c2.79-3.89,5.69-7.7,8.75-11.79H426V426H442.2a13.92,13.92,0,0,1-1.22,3.23c-2.47,3.46-5.07,6.81-7.61,10.21C433.08,439.85,432.82,440.25,432.36,440.92Z" transform="translate(-154.21 -284.5)"/><path class="cls-1" d="M335,322.87c11.62,3.13,22.18,8.44,32.49,14.56-.45.05-.91.07-1.36.13-5.43.79-10.45-1.05-15.52-2.5-2.55-.73-5.1-1.42-7.64-2.16a2.51,2.51,0,0,1-1.29-.65C339.39,329.15,337.19,326,335,322.87Z" transform="translate(-154.21 -284.5)"/><path class="cls-1" d="M221.14,343a13.47,13.47,0,0,1-16.37-8,26.85,26.85,0,0,1-.65-20.16,9.55,9.55,0,0,1,6.31-6.72L206.94,314l.36.31c2.27-2.34,4.84-3.38,8.24-1.92a10.38,10.38,0,0,1-1.13.32,6.79,6.79,0,0,0-4.77,3.06c-3.31,4.74-4.77,16.28,1.55,22.8a13.48,13.48,0,0,0,8.78,4.34C220.36,342.91,220.75,343,221.14,343Z" transform="translate(-154.21 -284.5)"/><path class="cls-1" d="M173.92,444.93a38.93,38.93,0,0,1-4.09-.05,1.9,1.9,0,0,1-1.2-1c-1.32-2.91-2.55-5.86-3.81-8.79-.19-.44-.42-.87-.72-1.52-1.5,3.45-2.95,6.67-4.28,9.94-.44,1.1-1,1.61-2.18,1.48a32.42,32.42,0,0,0-3.3,0c.2-.54.29-.91.45-1.24,2.58-5.57,5.14-11.14,7.78-16.67a2.66,2.66,0,0,1,1.5-1.06c.76-.25,1.26.16,1.6.93q4,8.64,8,17.24C173.72,444.3,173.77,444.49,173.92,444.93Z" transform="translate(-154.21 -284.5)"/><path class="cls-1" d="M443.58,444.71c.35-.78.67-1.54,1-2.29,2.38-5.12,4.76-10.22,7.12-15.34a1.6,1.6,0,0,1,1.63-1.19,1.62,1.62,0,0,1,1.64,1.18c2.51,5.49,5.06,11,7.59,16.43.18.39.33.8.58,1.42-1.56,0-2.94.08-4.31-.05-.38,0-.83-.63-1-1.07-1.48-3.32-2.9-6.67-4.47-10.32l-2.93,6.76c-.21.5-.43,1-.65,1.51C448.27,445.27,447.7,445.56,443.58,444.71Z" transform="translate(-154.21 -284.5)"/><path class="cls-1" d="M328.41,426v4h-5.68v14.79H318V430.09h-5.7V426Z" transform="translate(-154.21 -284.5)"/><path class="cls-1" d="M273.57,339.24,261,336.43c-7.16-1.62-14.3-3.28-21.46-4.83-1.34-.29-1.66-.82-1.51-2.1a43.69,43.69,0,0,0-1.18-17.07c-.14-.48-.3-.95-.46-1.43a3,3,0,0,1-.2-1.51c.32.46.68.9,1,1.38,2.64,4.33,4,9.16,5,14,.74,3.53,2.69,5.27,6.13,6.23,8.3,2.34,16.5,5,24.75,7.56a6.28,6.28,0,0,1,.65.3Z" transform="translate(-154.21 -284.5)"/><path class="cls-1" d="M417.84,444.78v-18.7h4.57v18.7Z" transform="translate(-154.21 -284.5)"/><path class="cls-1" d="M231,301c-5-4.1-10.84-5-17.22-4.37,2.35-1.6,27.86-5.85,32-5.4l-16.27,5.44,1.79,4.11Z" transform="translate(-154.21 -284.5)"/><path class="cls-1" d="M414.81,441v3.84H398.4V441Z" transform="translate(-154.21 -284.5)"/><path class="cls-1" d="M361,429.89V426h16.14v3.87Z" transform="translate(-154.21 -284.5)"/><path class="cls-1" d="M175.94,441h16.41v3.83H175.94Z" transform="translate(-154.21 -284.5)"/><path class="cls-1" d="M291.12,425.93v4c-.49,0-.92.09-1.36.09-4.45,0-8.89,0-13.34,0-1.11,0-1.62-.21-1.58-1.47.11-3.19-.24-2.62,2.62-2.64C282,425.91,286.44,425.93,291.12,425.93Z" transform="translate(-154.21 -284.5)"/><path class="cls-1" d="M398.6,426h16.09v3.87H398.6Z" transform="translate(-154.21 -284.5)"/><path class="cls-1" d="M176.07,429.92V426h16.06v3.91Z" transform="translate(-154.21 -284.5)"/><path class="cls-1" d="M360.85,444.81V441h16.41v3.83Z" transform="translate(-154.21 -284.5)"/><path class="cls-1" d="M274.8,444.85V441h16.27c.08.14.16.22.16.31.3,3.63.3,3.63-3.34,3.63h-11.4C276,444.92,275.42,444.88,274.8,444.85Z" transform="translate(-154.21 -284.5)"/><path class="cls-1" d="M326.21,315.7c-11.57-6.23-23.65-9.68-36.92-7.21,6.4-2,12.85-2.95,19.47-1.72S321.07,311.3,326.21,315.7Z" transform="translate(-154.21 -284.5)"/><path class="cls-1" d="M190.63,433.65v3.67h-13v-3.67Z" transform="translate(-154.21 -284.5)"/><path class="cls-1" d="M400.13,437.3v-3.65h12.93v3.65Z" transform="translate(-154.21 -284.5)"/><path class="cls-1" d="M276.55,437.41v-3.75c.49,0,1-.11,1.44-.12,3.35,0,6.7,0,10,0,1.28,0,1.73.42,1.57,1.63-.06.45.1.95-.05,1.34s-.55.89-.84.89C284.71,437.43,280.72,437.41,276.55,437.41Z" transform="translate(-154.21 -284.5)"/><path class="cls-1" d="M362.63,437.42v-3.88h2.23c3.14,0,6.28,0,9.41,0,1,0,1.49.32,1.36,1.37a4,4,0,0,0,0,1c.16,1.2-.37,1.53-1.53,1.51C370.34,437.39,366.56,437.42,362.63,437.42Z" transform="translate(-154.21 -284.5)"/><path class="cls-1" d="M210.19,305.79,205.64,309c-.51-3,2.41-9.36,5.71-12C209.94,300.08,209.05,302.86,210.19,305.79Z" transform="translate(-154.21 -284.5)"/></svg>