<?xml version="1.0" encoding="UTF-8"?>
<svg version="1.1" xmlns="http://www.w3.org/2000/svg" width="1080" height="1080">
<path d="M0 0 C1.47098145 0.08072754 1.47098145 0.08072754 2.97167969 0.16308594 C26.64845757 1.53217763 50.35201509 4.78824329 73 12 C73 12.66 73 13.32 73 14 C74.00160156 14.25007812 75.00320313 14.50015625 76.03515625 14.7578125 C80.16043261 15.94415295 83.71962068 17.75516062 87.4375 19.875 C88.12561768 20.26574707 88.81373535 20.65649414 89.52270508 21.05908203 C101.27293928 27.91193928 111.76281293 36.59367312 122.0234375 45.47265625 C124.78302678 47.81577208 127.61402853 50.00386672 130.5 52.1875 C134.72041979 55.52121922 137.79654506 59.05962208 140 64 C140 64.66 140 65.32 140 66 C139.27131714 66.00808685 138.54263428 66.01617371 137.79187012 66.02450562 C130.8507024 66.1031585 123.9096932 66.19064741 116.96875763 66.28752708 C113.40222386 66.33701047 109.83571311 66.38333483 106.26904297 66.421875 C84.55064962 66.54653997 84.55064962 66.54653997 63 69 C63 69.66 63 70.32 63 71 C75.62969955 72.61597398 88.21984386 73.28451464 100.9375 73.625 C101.68367584 73.64537323 102.42985168 73.66574646 103.19863892 73.68673706 C111.51784783 73.9078111 119.82291436 74.04261974 128.14575195 73.93383789 C132.40749461 74.03262604 136.53242021 74.69585306 140.734375 75.37890625 C144.13196745 75.90967526 147.53002117 76.26350214 150.953125 76.58984375 C168.61103733 78.32607642 181.13754869 81.13754869 194 94 C193.814375 93.030625 193.62875 92.06125 193.4375 91.0625 C193.293125 90.051875 193.14875 89.04125 193 88 C194 87 194 87 197.4375 86.6875 C202.8570325 86.78342093 207.1461236 88.73352052 212 91 C213.12148438 91.50917969 214.24296875 92.01835938 215.3984375 92.54296875 C232.38744486 100.5952423 239.46812339 110.5558405 248 127 C248.36802734 127.68094727 248.73605469 128.36189453 249.11523438 129.06347656 C257.96242519 148.42769223 248.97776123 181.40554691 242.25439453 200.06982422 C240.93387497 203.41149403 239.85828853 205.62899137 236.75 207.5 C235.8425 208.325 234.935 209.15 234 210 C233.9434891 213.36852515 233.9434891 213.36852515 235 217 C235.64983653 220.02563891 236.19811263 222.90012006 236 226 C233.75 228.875 233.75 228.875 231 231 C230.53851562 231.49628906 230.07703125 231.99257813 229.6015625 232.50390625 C227.72816293 234.2539356 225.98251065 235.06880524 223.625 236.0625 C222.49964844 236.54396484 222.49964844 236.54396484 221.3515625 237.03515625 C220.57554687 237.35355469 219.79953125 237.67195312 219 238 C218.28610107 238.32025146 217.57220215 238.64050293 216.83666992 238.97045898 C213.3678828 240.22942063 209.88947974 240.8498098 206.26171875 241.4375 C205.13765877 241.62515678 205.13765877 241.62515678 203.9908905 241.81660461 C201.55764377 242.21898682 199.12287797 242.61073657 196.6875 243 C195.85631653 243.13417328 195.02513306 243.26834656 194.16876221 243.40658569 C180.47852767 245.60396909 166.85097228 247.24177821 153 248 C151.58519576 248.08464257 150.17040167 248.16945491 148.75561523 248.25439453 C137.60517848 248.9050169 126.48167519 249.24217064 115.3125 249.25 C113.97312378 249.25101212 113.97312378 249.25101212 112.60668945 249.25204468 C-33.08410334 249.08401723 -33.08410334 249.08401723 -60.875 228.9375 C-61.84179688 228.24527344 -62.80859375 227.55304688 -63.8046875 226.83984375 C-64.89136719 225.92912109 -64.89136719 225.92912109 -66 225 C-66 224.34 -66 223.68 -66 223 C-66.680625 222.814375 -67.36125 222.62875 -68.0625 222.4375 C-71.50343668 220.75363737 -73.44194955 218.65349671 -76.0703125 215.91796875 C-83.50759631 208.52585063 -92.87846163 202.48288874 -101.72900391 196.91162109 C-103.18411676 195.98889781 -104.59650682 194.99948915 -106 194 C-106 193.34 -106 192.68 -106 192 C-106.59135742 191.87778076 -107.18271484 191.75556152 -107.79199219 191.62963867 C-110.62055216 190.82304246 -112.79502691 189.28131725 -115.22436523 187.66113281 C-133.38257545 175.57170854 -154.8661599 170.49346453 -176.31738281 167.63378906 C-179.9915272 166.76574403 -183.00916598 165.36624318 -185.2578125 162.265625 C-194.90511083 139.84217483 -193.74545967 110.49997094 -189 87 C-188.87254395 86.35111816 -188.74508789 85.70223633 -188.61376953 85.03369141 C-185.68985705 70.44117097 -181.76067858 53.64582135 -168.79296875 44.81640625 C-162.88278048 41.22519972 -156.76139912 38.41018874 -150.29296875 35.97265625 C-142.96193388 32.8628987 -137.32954638 27.57122178 -131.54296875 22.2421875 C-98.25127246 -7.11178127 -41.31139167 -2.36335193 0 0 Z M-80 15 C-81.16946177 18.50838532 -80.87764239 18.86805482 -79.3046875 22.02734375 C-78.92070801 22.81375244 -78.53672852 23.60016113 -78.14111328 24.41040039 C-77.7232959 25.24434326 -77.30547852 26.07828613 -76.875 26.9375 C-76.03453835 28.6631287 -75.19599103 30.3896911 -74.359375 32.1171875 C-73.95138672 32.95604492 -73.54339844 33.79490234 -73.12304688 34.65917969 C-67.9441642 45.45377254 -63.96584694 56.02349799 -63 68 C-65.97 68 -68.94 68 -72 68 C-72.33 68.99 -72.66 69.98 -73 71 C-65.65359655 73.616726 -65.65359655 73.616726 -58 75 C-57.01 74.505 -57.01 74.505 -56 74 C-55.67 74.99 -55.34 75.98 -55 77 C-53.081875 77.185625 -53.081875 77.185625 -51.125 77.375 C-47.25 77.75 -47.25 77.75 -45 80 C-43.15951898 80.70043136 -43.15951898 80.70043136 -41.04296875 81.21875 C-39.86831055 81.53392578 -39.86831055 81.53392578 -38.66992188 81.85546875 C-37.44112305 82.17451172 -37.44112305 82.17451172 -36.1875 82.5 C-27.56717869 84.77031607 -27.56717869 84.77031607 -24.1640625 86.1484375 C-21.09177151 87.35738955 -18.26295019 87.12795883 -15 87 C-15 87.66 -15 88.32 -15 89 C-13.83984375 89.36351562 -13.83984375 89.36351562 -12.65625 89.734375 C-7.19811109 91.49070683 -2.03890335 93.32384587 3.02734375 96.0078125 C5.20595128 97.10358738 7.41447089 97.99205771 9.6875 98.875 C24.50292332 104.69292879 40.10412096 111.54302204 53 121 C48.36313041 120.3109296 43.8893744 119.24100332 39.375 118 C36.91695478 117.33226331 34.45852601 116.66596641 32 116 C31.35426025 115.81912842 30.70852051 115.63825684 30.04321289 115.4519043 C26.41832909 114.6501765 22.76040393 114.8154702 19.0625 114.8125 C18.26392578 114.80025391 17.46535156 114.78800781 16.64257812 114.77539062 C10.94601863 114.76123182 6.9696747 115.18582594 2.625 119.1875 C0.7081714 121.96372186 0.7081714 121.96372186 1 125.5 C2.08150668 129.28527338 3.1870511 131.26742107 6 134 C8.12946603 134.86965506 8.12946603 134.86965506 10 135 C10 135.66 10 136.32 10 137 C23.82945482 143.5959244 36.82063206 147.82216092 51.88452148 150.58276367 C53.2685687 150.85573963 54.64522845 151.17020546 56.00927734 151.5300293 C59.67706844 152.39592307 63.43442049 152.42731649 67.1875 152.625 C68.00025391 152.6765625 68.81300781 152.728125 69.65039062 152.78125 C79.48466753 153.4576234 79.48466753 153.4576234 88.5625 150.4375 C89.036875 149.963125 89.51125 149.48875 90 149 C89.65138319 143.18971985 88.07119402 140.00124224 84 136 C81.16058634 133.68859541 78.19262897 131.58944557 75.1875 129.5 C73.63881782 128.4069653 72.09063733 127.31321942 70.54296875 126.21875 C69.79192871 125.69023438 69.04088867 125.16171875 68.26708984 124.6171875 C64.79678306 122.14170698 61.39426612 119.57836469 58 117 C63.75 116.875 63.75 116.875 66 118 C66.66 117.34 67.32 116.68 68 116 C66.96875 115.649375 65.9375 115.29875 64.875 114.9375 C60.99489129 113.48838436 57.37089457 111.70385618 53.6875 109.8125 C45.00392583 105.37245549 36.02126887 101.69104012 27 98 C25.93604004 97.56010742 25.93604004 97.56010742 24.85058594 97.11132812 C18.04132638 94.29661749 11.27407863 91.70133637 4.17578125 89.703125 C2.05100821 89.0164838 0.21965146 88.16995193 -1.75 87.125 C-11.65454072 81.88141962 -22.96420271 78.96047329 -33.60546875 75.5 C-35.1328125 75 -36.66015625 74.5 -38.1875 74 C-38.95513672 73.7525 -39.72277344 73.505 -40.51367188 73.25 C-41.26583984 73.0025 -42.01800781 72.755 -42.79296875 72.5 C-43.4583667 72.2834375 -44.12376465 72.066875 -44.80932617 71.84375 C-47.64172082 70.75283772 -50.3020039 69.38617943 -53 68 C-41.28974643 66.03444131 -29.9120596 65.75570535 -18.0625 65.875 C-16.30013536 65.88506231 -14.53776509 65.89418234 -12.77539062 65.90234375 C-8.51678412 65.9240712 -4.25845699 65.95841663 0 66 C-0.64006778 62.55270827 -0.64006778 62.55270827 -3.375 60.25 C-5.96685929 58.78503321 -5.96685929 58.78503321 -9 59 C-9 58.34 -9 57.68 -9 57 C-10.6396875 56.0409375 -10.6396875 56.0409375 -12.3125 55.0625 C-12.92738281 54.70285156 -13.54226563 54.34320312 -14.17578125 53.97265625 C-16.13819555 52.86098753 -16.13819555 52.86098753 -19 52 C-19 51.34 -19 50.68 -19 50 C-19.68964844 49.62488281 -20.37929688 49.24976563 -21.08984375 48.86328125 C-25.59380781 46.41050521 -30.09299685 43.95259676 -34.5625 41.4375 C-37.80780719 39.6365007 -41.07549962 37.88738732 -44.375 36.1875 C-45.59316406 35.55908203 -45.59316406 35.55908203 -46.8359375 34.91796875 C-49.0685151 33.80474641 -49.0685151 33.80474641 -52 34 C-52 33.34 -52 32.68 -52 32 C-52.99 32 -53.98 32 -55 32 C-55 31.34 -55 30.68 -55 30 C-58.85756507 27.84694043 -61.55129785 26.60746746 -66 27 C-65.34 29.97 -64.68 32.94 -64 36 C-64.35191406 35.32195313 -64.70382812 34.64390625 -65.06640625 33.9453125 C-70.28509013 23.9756832 -70.28509013 23.9756832 -77 15 C-77.99 15 -78.98 15 -80 15 Z M-182.6171875 88.46484375 C-184.5592374 92.02526857 -185.30885003 95.61044447 -186.125 99.5625 C-186.29676758 100.36880859 -186.46853516 101.17511719 -186.64550781 102.00585938 C-187.88101302 107.98906325 -188.77321609 113.88669454 -189 120 C-189.03996094 120.77859375 -189.07992187 121.5571875 -189.12109375 122.359375 C-189.43822188 133.77598764 -188.94681423 149.9975939 -181 159 C-178.5 159.75 -178.5 159.75 -176 159 C-173.24864183 155.26700148 -172.27959709 151.69557452 -171.375 147.1875 C-171.01535156 145.44533203 -171.01535156 145.44533203 -170.6484375 143.66796875 C-167.50714095 125.89882745 -167.12997836 105.60082689 -175 89 C-175.66 88.34 -176.32 87.68 -177 87 C-180.86956169 86.55244327 -180.86956169 86.55244327 -182.6171875 88.46484375 Z M70 117 C69.67 117.99 69.34 118.98 69 120 C74.53684601 123.96603054 80.05333386 127.68359004 86 131 C87.11022392 131.74100396 88.21465922 132.49077035 89.3125 133.25 C91.74482471 135.18189106 91.74482471 135.18189106 94 135 C94.33257813 135.86044922 94.33257813 135.86044922 94.671875 136.73828125 C96.40686415 139.69286571 98.48624777 141.17509571 101.25 143.1875 C102.18328125 143.88230469 103.1165625 144.57710937 104.078125 145.29296875 C111.19662633 149.45177233 120.06920836 148.05896677 128.05859375 147.9609375 C132.61849173 147.92669546 137.04995608 147.91762062 141.5703125 148.5625 C144.97613434 149.24891615 144.97613434 149.24891615 148 148 C148 147.01 148 146.02 148 145 C146.87722656 144.75765625 145.75445313 144.5153125 144.59765625 144.265625 C130.5322675 141.14731778 130.5322675 141.14731778 124.15625 137.99609375 C121.55544683 136.79463576 118.91507108 135.93771288 116.1875 135.0625 C110.98420997 133.37869422 105.99210546 131.37745963 100.96484375 129.23046875 C97.1481311 127.64645757 93.27494482 126.25835124 89.375 124.89453125 C87 124 87 124 84.859375 122.89453125 C82.48740929 121.75339649 80.59767202 121.85568489 78 122 C78 121.34 78 120.68 78 120 C75.36 119.01 72.72 118.02 70 117 Z M-66.73046875 135.15234375 C-77.39169661 150.66853076 -78.33191456 172.52844798 -75.33984375 190.59765625 C-72.83281601 202.82935066 -67.0593626 217.51883695 -56.375 224.8125 C-55.80523438 225.21082031 -55.23546875 225.60914063 -54.6484375 226.01953125 C-50.78115663 228.31973859 -47.39500632 228.35443599 -43 228 C-35.38949902 225.97782021 -30.22551481 221.55621981 -26 215 C-16.84314358 196.75115863 -15.18440566 174.76197261 -20.8125 155.171875 C-24.80016301 143.54119121 -29.49437506 133.17054163 -39.8125 126.0625 C-50.63096694 122.45634435 -59.90430361 126.29525344 -66.73046875 135.15234375 Z M55 212 C55 212.66 55 213.32 55 214 C70.61281395 216.42727767 86.27041069 216.3086879 102.02514648 216.26074219 C105.7623612 216.24950305 109.4992861 216.25602967 113.23649025 216.26761627 C128.85940133 216.30868065 144.42951157 216.03197455 160.02734375 215.109375 C160.70990297 215.07054451 161.3924622 215.03171402 162.09570503 214.99170685 C174.18442 214.41278876 174.18442 214.41278876 186 212 C186.33 211.34 186.66 210.68 187 210 C172.5947897 209.95298419 158.18959154 209.91800141 143.78431988 209.89637566 C137.09357105 209.88612493 130.40287737 209.87192826 123.7121582 209.84912109 C117.24117849 209.82720394 110.77024839 209.81539203 104.29923439 209.81024551 C101.84481845 209.80658333 99.39040486 209.79943333 96.93601036 209.78853989 C82.81367143 209.72841958 69.00769606 210.12781391 55 212 Z " fill="#FEFEFE" transform="translate(794,518)"/>
<path d="M0 0 C0.7425 0.7425 1.485 1.485 2.25 2.25 C3.6184262 3.46577308 4.99402401 4.67350104 6.375 5.875 C7.36886719 6.76058594 7.36886719 6.76058594 8.3828125 7.6640625 C10.36828234 9.412536 10.36828234 9.412536 13.25 11.25 C12.92 11.91 12.59 12.57 12.25 13.25 C11.26 12.59 10.27 11.93 9.25 11.25 C6.45258332 11.0656425 3.75734883 10.99401505 0.9609375 11.01953125 C0.1430777 11.01998947 -0.6747821 11.02044769 -1.51742554 11.0209198 C-3.2507268 11.02394143 -4.98402536 11.03182508 -6.71728516 11.04418945 C-9.34417582 11.06228763 -11.97071013 11.06470006 -14.59765625 11.06445312 C-16.28646133 11.06937509 -17.97526404 11.07520634 -19.6640625 11.08203125 C-20.43940338 11.08314407 -21.21474426 11.0842569 -22.01358032 11.08540344 C-32.39952838 10.98568484 -32.39952838 10.98568484 -42.0625 14.1875 C-42.98482422 14.69603516 -42.98482422 14.69603516 -43.92578125 15.21484375 C-44.52777344 15.55644531 -45.12976563 15.89804687 -45.75 16.25 C-46.46285156 16.57226562 -47.17570313 16.89453125 -47.91015625 17.2265625 C-50.53113039 18.68451414 -50.80298727 20.47660558 -51.75 23.25 C-52.41 24.24 -53.07 25.23 -53.75 26.25 C-52.71593327 27.50949049 -52.71593327 27.50949049 -50.46484375 27.34765625 C-49.54832031 27.33605469 -48.63179687 27.32445312 -47.6875 27.3125 C-46.76839844 27.30347656 -45.84929688 27.29445313 -44.90234375 27.28515625 C-43.83693359 27.26775391 -43.83693359 27.26775391 -42.75 27.25 C-42.75 26.59 -42.75 25.93 -42.75 25.25 C-40.77 25.25 -38.79 25.25 -36.75 25.25 C-36.75 24.59 -36.75 23.93 -36.75 23.25 C-30.04638463 20.52965041 -24.22188933 19.83825201 -17.02734375 19.95703125 C-16.04125626 19.96127609 -15.05516876 19.96552094 -14.03919983 19.96989441 C-10.92167651 19.98654829 -7.8048245 20.0241752 -4.6875 20.0625 C-2.56055628 20.07756403 -0.43360232 20.09124941 1.69335938 20.10351562 C6.87916082 20.13640818 12.064467 20.1880974 17.25 20.25 C16.92 18.93 16.59 17.61 16.25 16.25 C35.29832474 32.0560567 35.29832474 32.0560567 37.125 43.625 C38.03457132 56.92748049 31.94469101 68.99769473 23.43359375 78.77734375 C22.35271484 80.00130859 22.35271484 80.00130859 21.25 81.25 C20.53972656 82.17941406 19.82945312 83.10882813 19.09765625 84.06640625 C18.48792969 84.78699219 17.87820313 85.50757813 17.25 86.25 C16.59 86.25 15.93 86.25 15.25 86.25 C14.99476563 86.84039062 14.73953125 87.43078125 14.4765625 88.0390625 C11.02868894 94.2540193 3.17168217 99.45511918 -2.75 103.25 C-3.41 103.25 -4.07 103.25 -4.75 103.25 C-4.75 103.91 -4.75 104.57 -4.75 105.25 C-7.01538638 106.76025759 -9.26875953 108.14495829 -11.625 109.5 C-13.01441116 110.31365142 -14.40373402 111.12745364 -15.79296875 111.94140625 C-16.47407715 112.33730957 -17.15518555 112.73321289 -17.85693359 113.14111328 C-20.23980101 114.53690691 -22.58736973 115.98741962 -24.9375 117.4375 C-29.49599779 120.18019617 -34.21402107 122.53309597 -38.9921875 124.8671875 C-41.25088261 125.99973434 -43.40337913 127.19290889 -45.5625 128.5 C-48.75 130.25 -48.75 130.25 -52.5625 131.3125 C-56.0193409 131.95881183 -56.0193409 131.95881183 -57.75 135.25 C-53.09145123 135.44426617 -48.43264524 135.62263827 -43.77294922 135.78710938 C-42.1920593 135.8450528 -40.61131478 135.90713173 -39.03076172 135.97363281 C-28.47652043 136.41422733 -18.52537461 136.69179171 -8.6875 132.25 C-2.78008349 129.75679114 2.82245437 128.25 9.25 128.25 C9.25 128.91 9.25 129.57 9.25 130.25 C10.24 130.20359375 11.23 130.1571875 12.25 130.109375 C19.68727971 129.86454179 25.99528103 129.70953734 32.25 134.25 C33.219375 134.95125 34.18875 135.6525 35.1875 136.375 C37.25 138.25 37.25 138.25 38.25 140.25 C39.53064331 140.22643433 39.53064331 140.22643433 40.8371582 140.20239258 C61.27278553 139.88398855 81.59445708 140.38964371 102 141.5625 C103.08165436 141.6214444 104.16330872 141.68038879 105.27774048 141.74111938 C134.59350744 143.36450248 134.59350744 143.36450248 146.25 147.25 C146.25 148.24 146.25 149.23 146.25 150.25 C139.65032229 153.08635609 133.43289426 154.12054234 126.3125 154.875 C125.18384521 155.00052246 124.05519043 155.12604492 122.89233398 155.25537109 C112.89917313 156.30553043 102.91941076 156.76430346 92.87890625 157.0390625 C89.20923824 157.14611672 85.59639052 157.38935742 81.9453125 157.76953125 C75.15379741 158.43294788 68.38012654 158.35844564 61.5625 158.3125 C60.27666016 158.30798828 58.99082031 158.30347656 57.66601562 158.29882812 C54.52729347 158.28716001 51.38867272 158.27079015 48.25 158.25 C47.96125 157.610625 47.6725 156.97125 47.375 156.3125 C46.42176549 154.09793921 46.42176549 154.09793921 44.25 153.25 C44.31960938 154.22839844 44.38921875 155.20679688 44.4609375 156.21484375 C44.77196772 163.74621829 44.81954383 169.42869522 39.90625 175.5703125 C37.8310039 177.67492529 36.03090947 179.19776399 33.25 180.25 C32.26 179.92 31.27 179.59 30.25 179.25 C30.58 178.5075 30.91 177.765 31.25 177 C33.73014487 167.69945673 32.51182523 159.75798199 28.25 151.25 C27.816875 150.30125 27.38375 149.3525 26.9375 148.375 C22.68080304 143.01471493 17.94306212 142.07667364 11.4375 141.25 C10.31730469 141.146875 9.19710937 141.04375 8.04296875 140.9375 C5.25 140.25 5.25 140.25 3.86328125 138.1875 C3.55970703 137.2284375 3.55970703 137.2284375 3.25 136.25 C2.96125 136.971875 2.6725 137.69375 2.375 138.4375 C1.68161597 140.17096007 0.97153036 141.89797743 0.234375 143.61328125 C-3.17973697 152.75822404 -1.62304171 161.48041006 2.25 170.25 C4.74532044 173.83255445 4.74532044 173.83255445 8.25 176.25 C8.25 176.91 8.25 177.57 8.25 178.25 C8.971875 178.53875 9.69375 178.8275 10.4375 179.125 C13.25 180.25 13.25 180.25 15.3125 181.3125 C19.56945668 182.6711032 23.62564623 182.46102401 28.0625 182.375 C28.94615234 182.36597656 29.82980469 182.35695313 30.74023438 182.34765625 C32.91027359 182.32419637 35.08017247 182.28832865 37.25 182.25 C37.25 182.91 37.25 183.57 37.25 184.25 C36.59 184.25 35.93 184.25 35.25 184.25 C34.84974609 185.14912109 34.84974609 185.14912109 34.44140625 186.06640625 C29.26076283 195.56142156 15.99302566 200.34842739 6.25 203.25 C0.67669062 204.50399461 -4.87881525 204.43367775 -10.5625 204.4375 C-11.50931641 204.44974609 -12.45613281 204.46199219 -13.43164062 204.47460938 C-24.02270954 204.49647669 -33.52675773 202.80644538 -41.6875 195.6875 C-44.4213128 192.45663033 -44.87664129 190.07160277 -44.8828125 185.9765625 C-44.88410156 185.1515625 -44.88539063 184.3265625 -44.88671875 183.4765625 C-44.88285156 182.61804688 -44.87898437 181.75953125 -44.875 180.875 C-44.87886719 180.02421875 -44.88273438 179.1734375 -44.88671875 178.296875 C-44.8802042 174.11453174 -44.62116859 170.3524121 -43.75 166.25 C-44.08 165.59 -44.41 164.93 -44.75 164.25 C-47.02113803 164.39100857 -49.29190725 164.53796755 -51.5625 164.6875 C-53.45935547 164.80931641 -53.45935547 164.80931641 -55.39453125 164.93359375 C-58.74181893 165.12184547 -58.74181893 165.12184547 -61.75 166.25 C-63.11363208 168.22946592 -64.44418644 170.2319245 -65.75 172.25 C-68.48716312 175.42864104 -70.67527774 177.1634074 -74.75 178.25 C-77.75846986 178.40194292 -80.74086522 178.36800529 -83.75 178.25 C-85.20606519 173.72907032 -84.02032841 170.73351204 -82.75 166.25 C-86.18782031 166.38883419 -89.62516029 166.53727054 -93.0625 166.6875 C-94.03896484 166.72681641 -95.01542969 166.76613281 -96.02148438 166.80664062 C-96.95927734 166.84853516 -97.89707031 166.89042969 -98.86328125 166.93359375 C-99.72735596 166.97025146 -100.59143066 167.00690918 -101.48168945 167.04467773 C-103.9147826 167.17747354 -103.9147826 167.17747354 -106.75 168.25 C-108.14439664 168.31665376 -109.54169875 168.33538199 -110.9375 168.3125 C-112.195625 168.291875 -113.45375 168.27125 -114.75 168.25 C-114.75 168.91 -114.75 169.57 -114.75 170.25 C-117.72 170.58 -120.69 170.91 -123.75 171.25 C-123.75 171.91 -123.75 172.57 -123.75 173.25 C-124.27207031 173.42015625 -124.79414062 173.5903125 -125.33203125 173.765625 C-129.66480507 175.1921775 -133.96717402 176.67942912 -138.25 178.25 C-140.08296243 178.91768576 -141.91627675 179.58440658 -143.75 180.25 C-144.48992188 180.51941406 -145.22984375 180.78882813 -145.9921875 181.06640625 C-155.88836173 184.52825474 -165.9918562 186.33944959 -176.359375 187.7109375 C-181.2752895 188.49249994 -185.99553727 189.79455223 -190.75 191.25 C-190.75 191.91 -190.75 192.57 -190.75 193.25 C-191.8225 193.45625 -192.895 193.6625 -194 193.875 C-198.9625936 195.10249665 -203.23268599 197.40537703 -207.75390625 199.7421875 C-211.1150006 201.43369 -214.51054925 202.84527491 -218.01953125 204.1953125 C-220.04722042 204.97854008 -222.06390429 205.79038367 -224.07421875 206.6171875 C-234.98752314 211.09384583 -246.08282885 215.06054242 -257.4296875 218.30078125 C-259.48155092 218.88737279 -261.52226657 219.51715664 -263.5390625 220.21484375 C-277.86698864 225.12896718 -292.73509804 226.50376274 -307.8125 226.5625 C-308.8221582 226.56797852 -309.83181641 226.57345703 -310.87207031 226.57910156 C-317.09805402 226.5198454 -322.99131058 225.82652882 -329.11401367 224.71118164 C-332.0362565 224.19991771 -334.91306062 223.95498396 -337.875 223.8125 C-343.47063017 223.41386672 -348.47184484 222.10669618 -353.75 220.25 C-353.75 219.59 -353.75 218.93 -353.75 218.25 C-354.4925 218.311875 -355.235 218.37375 -356 218.4375 C-359.26239149 218.21506422 -360.49339127 217.59018683 -362.75 215.25 C-362.75 211.25 -362.75 211.25 -360.75 209.25 C-360.0075 208.693125 -359.265 208.13625 -358.5 207.5625 C-356.25933568 205.678305 -354.63991946 203.98990784 -352.8125 201.75 C-350.83662124 199.34815257 -349.02812286 197.62308693 -346.375 196 C-345.50875 195.4225 -344.6425 194.845 -343.75 194.25 C-343.75 193.26 -343.75 192.27 -343.75 191.25 C-348.46347802 193.23409224 -352.68048601 195.11960462 -356.75 198.25 C-357.74 198.25 -358.73 198.25 -359.75 198.25 C-359.75 198.91 -359.75 199.57 -359.75 200.25 C-364.32950847 203.90343009 -369.47225145 206.74306944 -374.75 209.25 C-375.08 209.58 -375.41 209.91 -375.75 210.25 C-383.20864662 210.61090226 -383.20864662 210.61090226 -386.75 208.25 C-386.75 207.59 -386.75 206.93 -386.75 206.25 C-388.4515625 206.0334375 -388.4515625 206.0334375 -390.1875 205.8125 C-393.75 205.25 -393.75 205.25 -394.75 204.25 C-399.37407747 203.69319669 -404.03834082 203.51063695 -408.6875 203.25 C-409.44478394 203.20575897 -410.20206787 203.16151794 -410.9822998 203.11593628 C-424.10476367 202.37376305 -437.22348094 202.13718171 -450.36328125 202.00390625 C-451.18380919 201.99517864 -452.00433712 201.98645103 -452.84972954 201.97745895 C-461.24837301 201.88853133 -469.64676348 201.81274405 -478.045825 201.77938938 C-481.26043477 201.76401472 -484.47488677 201.73710464 -487.68939781 201.70792961 C-489.19990856 201.69705425 -490.71046794 201.6914465 -492.22101784 201.69153023 C-500.24945094 201.69067735 -507.25175442 201.39128363 -514.75 198.25 C-512.22211993 195.45127563 -510.54588866 193.79226981 -506.75 193.25 C-506.75 192.59 -506.75 191.93 -506.75 191.25 C-483.63183076 186.82123195 -460.22716332 185.98139807 -436.76342773 184.94702148 C-435.89786255 184.90786621 -435.03229736 184.86871094 -434.14050293 184.82836914 C-432.5167648 184.75520298 -430.89290761 184.68461131 -429.2689209 184.6171875 C-424.38141518 184.395427 -419.5998407 183.89630245 -414.75 183.25 C-404.73269491 182.41350339 -394.80102034 182.10865753 -384.75 182.25 C-384.75 181.59 -384.75 180.93 -384.75 180.25 C-383.43 180.25 -382.11 180.25 -380.75 180.25 C-380.88277344 179.63253906 -381.01554687 179.01507813 -381.15234375 178.37890625 C-384.34925094 163.04775281 -384.34925094 163.04775281 -382.75 158.25 C-386.97141183 156.13929408 -392.48684485 156.97623738 -397.125 156.9375 C-398.27484375 156.90849609 -399.4246875 156.87949219 -400.609375 156.84960938 C-401.71539062 156.84123047 -402.82140625 156.83285156 -403.9609375 156.82421875 C-404.97462402 156.80963623 -405.98831055 156.79505371 -407.03271484 156.7800293 C-410.47287304 157.37502521 -411.54271251 158.61222177 -413.75 161.25 C-417.54303972 165.35912636 -421.48983061 169.17018125 -426.75 171.25 C-429.87177792 171.36149207 -432.71458201 170.95966948 -435.75 170.25 C-436.88890378 166.45632754 -436.34374374 164.88019408 -434.75 161.25 C-434.38128912 159.59080104 -434.03718326 157.9252357 -433.75 156.25 C-441.36886581 155.08270644 -449.0020163 154.63948894 -456.6875 154.1875 C-457.4363446 154.14264465 -458.18518921 154.09778931 -458.95672607 154.05157471 C-472.22823144 153.26773096 -485.45467994 152.99634699 -498.75 153.25 C-498.99878906 153.99765625 -499.24757813 154.7453125 -499.50390625 155.515625 C-500.86484569 158.5020125 -502.19540927 159.90237428 -504.6875 162 C-505.37714844 162.59296875 -506.06679688 163.1859375 -506.77734375 163.796875 C-510.12254948 166.26106615 -512.91727423 166.36471072 -516.9375 166.3125 C-517.83855469 166.30347656 -518.73960937 166.29445313 -519.66796875 166.28515625 C-520.69857422 166.26775391 -520.69857422 166.26775391 -521.75 166.25 C-522.60010911 163.84494448 -522.89566919 162.64944025 -522.0078125 160.21484375 C-521.63398437 159.54582031 -521.26015625 158.87679687 -520.875 158.1875 C-519.5822555 155.83253537 -518.60673059 153.82019176 -517.75 151.25 C-532.93 151.25 -548.11 151.25 -563.75 151.25 C-563.75 150.59 -563.75 149.93 -563.75 149.25 C-564.50796875 149.26160156 -565.2659375 149.27320313 -566.046875 149.28515625 C-575.12285252 149.35702485 -584.17922591 149.12186435 -593.25 148.8125 C-594.46655273 148.77326416 -595.68310547 148.73402832 -596.93652344 148.69360352 C-602.62273446 148.48884018 -608.1196349 148.09455476 -613.75 147.25 C-617.08094082 147.04019117 -620.41474446 146.93145371 -623.75 146.8125 C-629.83700222 146.56531209 -635.78708919 146.20138065 -641.8125 145.25 C-650.44883207 143.9420477 -659.13053932 143.84698373 -667.85375977 143.6796875 C-674.19908491 143.52465491 -679.64987623 142.94200513 -685.75 141.25 C-688.90648078 140.76774589 -692.07303116 140.4406272 -695.25 140.125 C-696.48363281 139.99544922 -696.48363281 139.99544922 -697.7421875 139.86328125 C-699.74426526 139.65376148 -701.74706397 139.45114956 -703.75 139.25 C-703.04039265 136.31884654 -702.41862562 133.79518212 -700.75 131.25 C-698.578125 130.0546875 -698.578125 130.0546875 -696 129.125 C-695.15953125 128.81304687 -694.3190625 128.50109375 -693.453125 128.1796875 C-692.56109375 127.87289062 -691.6690625 127.56609375 -690.75 127.25 C-689.82832031 126.90453125 -688.90664063 126.5590625 -687.95703125 126.203125 C-684.03884209 125.03864491 -680.24533482 124.53593602 -676.1875 124.125 C-674.95870117 123.99871216 -674.95870117 123.99871216 -673.70507812 123.86987305 C-667.38419359 123.28042548 -661.09683122 123.06823181 -654.75 123.0625 C-653.4978772 123.0612915 -653.4978772 123.0612915 -652.22045898 123.06005859 C-648.06677496 123.09700212 -643.99087852 123.30588575 -639.86090088 123.75241089 C-632.90045159 124.39928097 -625.96022198 124.39043131 -618.97558594 124.37939453 C-617.51595517 124.38075346 -616.05632474 124.38253613 -614.59669495 124.38470459 C-610.63968021 124.38924796 -606.68269171 124.3874948 -602.72567654 124.3843255 C-598.49055866 124.38175345 -594.2554427 124.38415562 -590.02032471 124.38571167 C-582.83792738 124.38753292 -575.6555403 124.38514226 -568.47314453 124.38037109 C-561.27945266 124.37564467 -554.08578159 124.37544514 -546.89208984 124.38037109 C-495.83717941 124.414515 -444.79901814 124.03023637 -393.75 123.25 C-393.73886034 121.80485252 -393.73089908 120.3596803 -393.72428894 118.914505 C-393.71951632 118.10972875 -393.71474371 117.30495249 -393.70982647 116.47578907 C-393.7541598 114.01952865 -394.09845742 111.85103907 -394.73828125 109.48046875 C-394.94880127 108.66400879 -395.15932129 107.84754883 -395.3762207 107.00634766 C-395.60269287 106.15862793 -395.82916504 105.3109082 -396.0625 104.4375 C-397.91033381 97.12089091 -399.45144118 89.84056014 -400.5625 82.375 C-400.6860083 81.56184326 -400.8095166 80.74868652 -400.93676758 79.91088867 C-401.59103668 75.30892396 -401.86773175 70.89730582 -401.75 66.25 C-402.41 66.25 -403.07 66.25 -403.75 66.25 C-404.01554687 65.53972656 -404.28109375 64.82945312 -404.5546875 64.09765625 C-405.08449219 62.71900391 -405.08449219 62.71900391 -405.625 61.3125 C-405.97304688 60.39597656 -406.32109375 59.47945313 -406.6796875 58.53515625 C-407.5319086 56.10058944 -407.5319086 56.10058944 -409.75 55.25 C-408.50023244 51.59683329 -408.07901247 50.46934164 -404.75 48.25 C-402.24110185 47.92175963 -399.83077739 47.69529507 -397.3125 47.5625 C-396.64412109 47.51544922 -395.97574219 47.46839844 -395.28710938 47.41992188 C-388.79932084 47.0276968 -388.79932084 47.0276968 -385.75 48.25 C-384.19775391 50.22436523 -384.19775391 50.22436523 -382.7265625 52.80859375 C-381.90671875 54.22495117 -381.90671875 54.22495117 -381.0703125 55.66992188 C-380.51085937 56.66572266 -379.95140625 57.66152344 -379.375 58.6875 C-378.26331113 60.62386461 -377.15133345 62.56006344 -376.0390625 64.49609375 C-375.49531982 65.45257813 -374.95157715 66.4090625 -374.39135742 67.39453125 C-372.32686875 70.98612123 -370.18774172 74.5293797 -368.03100586 78.06616211 C-366.45951438 80.74521515 -365.10869682 83.50061672 -363.76171875 86.296875 C-362.26641079 89.1835699 -360.49523435 91.87618179 -358.703125 94.5859375 C-357.75 96.25 -357.75 96.25 -357.75 98.25 C-357.09 98.25 -356.43 98.25 -355.75 98.25 C-355.37875 99.095625 -355.0075 99.94125 -354.625 100.8125 C-351.81925344 105.95636869 -348.07171578 110.00885408 -343.875 114.0625 C-341.75 116.25 -341.75 116.25 -341.75 118.25 C-341.09 118.25 -340.43 118.25 -339.75 118.25 C-338.39567325 119.56200404 -337.06266518 120.89631404 -335.75 122.25 C-329.6748147 125.28759265 -320.11241415 123.23584922 -313.375 122.875 C-311.41433594 122.77058594 -311.41433594 122.77058594 -309.4140625 122.6640625 C-305.91303319 122.26842379 -303.05130326 121.43312602 -299.75 120.25 C-296.875 120.125 -296.875 120.125 -294.75 120.25 C-294.75 119.59 -294.75 118.93 -294.75 118.25 C-288.45847882 116.18950181 -282.30936031 114.23435148 -275.75 113.25 C-271.32989248 112.521832 -269.05812798 111.37434309 -265.75 108.25 C-263.43003092 106.87520351 -261.11124208 105.54766537 -258.75 104.25 C-257.63625 103.610625 -256.5225 102.97125 -255.375 102.3125 C-254.1667682 101.62482158 -252.95842527 100.9373384 -251.75 100.25 C-250.96753906 99.80011719 -250.18507813 99.35023438 -249.37890625 98.88671875 C-248.57324219 98.42910156 -247.76757812 97.97148437 -246.9375 97.5 C-246.18855469 97.07203125 -245.43960937 96.6440625 -244.66796875 96.203125 C-242.75 95.25 -242.75 95.25 -240.75 95.25 C-240.75 94.59 -240.75 93.93 -240.75 93.25 C-240.18490723 92.99307373 -239.61981445 92.73614746 -239.03759766 92.47143555 C-236.47926522 91.30226552 -233.92716193 90.12007503 -231.375 88.9375 C-230.48554688 88.53337891 -229.59609375 88.12925781 -228.6796875 87.71289062 C-227.82890625 87.31650391 -226.978125 86.92011719 -226.1015625 86.51171875 C-224.92327881 85.96970825 -224.92327881 85.96970825 -223.72119141 85.41674805 C-221.44463912 84.26156256 -221.44463912 84.26156256 -219.75 81.25 C-217.7890625 80.328125 -217.7890625 80.328125 -215.375 79.5 C-209.95258214 77.47941926 -205.22323398 74.68580101 -200.31640625 71.640625 C-197.75 70.25 -197.75 70.25 -194.75 70.25 C-194.75 69.59 -194.75 68.93 -194.75 68.25 C-194.09773438 68.00765625 -193.44546875 67.7653125 -192.7734375 67.515625 C-187.61605248 65.53786673 -183.32892224 63.36366712 -178.75 60.25 C-176.84344305 59.27170839 -174.92540416 58.31565547 -173 57.375 C-169.22881114 55.5286407 -165.61579919 53.61023778 -162.0625 51.375 C-156.82749657 48.14362166 -151.31435365 45.60349934 -145.72583008 43.05322266 C-141.9186719 41.30942585 -138.30121737 39.48667835 -134.75 37.25 C-132.00048607 35.71350692 -130.97585306 35.25 -127.75 35.25 C-127.75 34.59 -127.75 33.93 -127.75 33.25 C-123.295 31.765 -123.295 31.765 -118.75 30.25 C-118.75 29.59 -118.75 28.93 -118.75 28.25 C-117.84121094 27.90388672 -117.84121094 27.90388672 -116.9140625 27.55078125 C-110.66281278 25.11760251 -104.71247921 22.31508697 -98.75 19.25 C-96.25206392 17.99712893 -93.75105943 16.75052806 -91.25 15.50390625 C-89.57913814 14.6658646 -87.91245155 13.81944775 -86.25 12.96484375 C-77.09593101 8.28768662 -67.6396135 4.80581035 -57.94921875 1.3984375 C-56.04113337 0.71348377 -54.14421847 -0.00647622 -52.27734375 -0.796875 C-37.64918915 -6.31352063 -13.70555031 -8.72171384 0 0 Z M-277.75 118.25 C-277.9975 119.03375 -278.245 119.8175 -278.5 120.625 C-279.75 123.25 -279.75 123.25 -281.6875 124.0625 C-284.65111269 125.76882246 -285.1749266 127.87834639 -286.2109375 131.0546875 C-288.23545489 139.29946123 -286.11330195 148.67928673 -282.26953125 156.11328125 C-281.76808594 156.81839844 -281.26664062 157.52351563 -280.75 158.25 C-280.09 158.25 -279.43 158.25 -278.75 158.25 C-278.5025 158.8275 -278.255 159.405 -278 160 C-275.01593001 165.37132599 -270.41502318 168.20987833 -264.75 170.25 C-261.39198139 170.69494926 -258.12938959 170.63496794 -254.75 170.5 C-253.87988281 170.48195313 -253.00976562 170.46390625 -252.11328125 170.4453125 C-249.99170093 170.39868436 -247.87069665 170.32696077 -245.75 170.25 C-245.42 168.6 -245.09 166.95 -244.75 165.25 C-248.29518884 166.64759905 -248.29518884 166.64759905 -251.75 168.25 C-251.440625 167.363125 -251.13125 166.47625 -250.8125 165.5625 C-248.37559602 156.77541557 -247.7970934 148.69645439 -251.546875 140.2734375 C-252.76318178 138.22783065 -253.9170479 136.76459726 -255.75 135.25 C-256.41 135.25 -257.07 135.25 -257.75 135.25 C-257.9975 134.486875 -258.245 133.72375 -258.5 132.9375 C-259.92906672 129.86500654 -260.90678757 129.02640437 -263.75 127.25 C-266.67642971 126.24978678 -266.67642971 126.24978678 -269.8125 125.5625 C-270.85535156 125.31113281 -271.89820313 125.05976563 -272.97265625 124.80078125 C-275.7685438 124.15273799 -275.7685438 124.15273799 -278.75 124.25 C-278.09 123.63125 -277.43 123.0125 -276.75 122.375 C-274.5215451 120.49362573 -274.5215451 120.49362573 -274.75 118.25 C-275.74 118.25 -276.73 118.25 -277.75 118.25 Z " fill="#FEFEFE" transform="translate(722.75,306.75)"/>
<path d="M0 0 C4.42489195 3.08483321 6.91332723 7.07742122 7.921875 12.33984375 C9.05586685 24.18133557 6.18358515 35.88073667 -1.078125 45.33984375 C-6.29917855 51.39835953 -13.25016962 54.71190682 -21.18994141 55.56738281 C-29.68265757 56.14506917 -38.94742565 56.70016257 -46.078125 51.33984375 C-49.8863325 47.79107618 -51.91333236 44.49565571 -52.31640625 39.22265625 C-52.55993688 26.89231591 -50.71823477 14.82102615 -42.078125 5.33984375 C-31.14525494 -3.91718491 -13.11547552 -6.35422176 0 0 Z M-30.265625 16.27734375 C-33.58035878 21.87810083 -35.66205334 28.90770283 -34.890625 35.46484375 C-34.30201582 38.44138817 -34.30201582 38.44138817 -32.078125 40.33984375 C-27.54552802 41.56761442 -23.78243915 41.53612802 -19.265625 40.27734375 C-14.5260945 37.39645266 -12.78831946 34.18634933 -10.828125 29.08984375 C-9.91716615 24.53504951 -9.32740656 19.95716575 -10.078125 15.33984375 C-11.60658538 13.20955209 -12.61774029 12.47839763 -15.12890625 11.72265625 C-21.58166036 10.98710915 -25.27207324 11.85448362 -30.265625 16.27734375 Z " fill="#FFFFFF" transform="translate(508.078125,684.66015625)"/>
<path d="M0 0 C4.42489195 3.08483321 6.91332723 7.07742122 7.921875 12.33984375 C9.05586685 24.18133557 6.18358515 35.88073667 -1.078125 45.33984375 C-6.29917855 51.39835953 -13.25016962 54.71190682 -21.18994141 55.56738281 C-29.68265757 56.14506917 -38.94742565 56.70016257 -46.078125 51.33984375 C-49.8863325 47.79107618 -51.91333236 44.49565571 -52.31640625 39.22265625 C-52.55993688 26.89231591 -50.71823477 14.82102615 -42.078125 5.33984375 C-31.14525494 -3.91718491 -13.11547552 -6.35422176 0 0 Z M-30.265625 16.27734375 C-33.58035878 21.87810083 -35.66205334 28.90770283 -34.890625 35.46484375 C-34.30201582 38.44138817 -34.30201582 38.44138817 -32.078125 40.33984375 C-27.54552802 41.56761442 -23.78243915 41.53612802 -19.265625 40.27734375 C-14.5260945 37.39645266 -12.78831946 34.18634933 -10.828125 29.08984375 C-9.91716615 24.53504951 -9.32740656 19.95716575 -10.078125 15.33984375 C-11.60658538 13.20955209 -12.61774029 12.47839763 -15.12890625 11.72265625 C-21.58166036 10.98710915 -25.27207324 11.85448362 -30.265625 16.27734375 Z " fill="#FFFFFF" transform="translate(237.078125,579.66015625)"/>
<path d="M0 0 C5.15944873 -0.09920549 10.31833689 -0.17162646 15.47851562 -0.21972656 C17.23219479 -0.2397871 18.98580753 -0.26704251 20.73925781 -0.30175781 C23.26644318 -0.35052302 25.79274091 -0.37302392 28.3203125 -0.390625 C29.09867462 -0.41127014 29.87703674 -0.43191528 30.6789856 -0.45318604 C35.92423888 -0.45532663 38.81322311 0.57264798 43 4 C46.51078001 7.99502553 47.29698308 11.49265083 47.21875 16.8125 C46.6274603 22.725397 44.12751117 27.75455994 40 32 C38.02 33.32 36.04 34.64 34 36 C35.32 42.6 36.64 49.2 38 56 C32.06 56 26.12 56 20 56 C18.4375 48.625 18.4375 48.625 17.99780273 46.30712891 C17.53879627 44.14539388 17.53879627 44.14539388 16 41 C12.47280645 39.41320679 12.47280645 39.41320679 9 39 C8.92652344 39.8353125 8.92652344 39.8353125 8.8515625 40.6875 C8.77679688 41.450625 8.70203125 42.21375 8.625 43 C8.55539062 43.7425 8.48578125 44.485 8.4140625 45.25 C7.86725327 48.88163867 6.89073003 52.43707988 6 56 C0.39 56 -5.22 56 -11 56 C-10.35653908 49.1497582 -9.17685205 42.55936006 -7.71484375 35.83984375 C-7.49429825 34.80936417 -7.27375275 33.77888458 -7.04652405 32.71717834 C-6.34765452 29.45638045 -5.64267971 26.19693843 -4.9375 22.9375 C-4.45988097 20.71427978 -3.98266338 18.49097328 -3.50585938 16.26757812 C-2.34187994 10.84404568 -1.17289771 5.42161036 0 0 Z M15 12 C14.49564306 13.9363704 13.99666126 15.87414146 13.5 17.8125 C13.2215625 18.89144531 12.943125 19.97039063 12.65625 21.08203125 C11.89029052 23.98933975 11.89029052 23.98933975 12 27 C20.06789498 27.60943178 20.06789498 27.60943178 27 24 C29.31125423 20.80826797 29.42036517 17.8673596 29 14 C25.57905758 11.71937172 24.31812778 11.78074993 20.3125 11.875 C19.31863281 11.89304687 18.32476562 11.91109375 17.30078125 11.9296875 C16.54152344 11.95289063 15.78226562 11.97609375 15 12 Z " fill="#FFFFFF" transform="translate(416,578)"/>
<path d="M0 0 C5.94 0 11.88 0 18 0 C16.68 6.6 15.36 13.2 14 20 C19.94 20.33 25.88 20.66 32 21 C32.103125 19.7625 32.20625 18.525 32.3125 17.25 C32.95324907 11.34191668 34.48295654 5.7383818 36 0 C41.61 0 47.22 0 53 0 C52.35653908 6.8502418 51.17685205 13.44063994 49.71484375 20.16015625 C49.49429825 21.19063583 49.27375275 22.22111542 49.04652405 23.28282166 C48.34765452 26.54361955 47.64267971 29.80306157 46.9375 33.0625 C46.45988097 35.28572022 45.98266338 37.50902672 45.50585938 39.73242188 C44.34187942 45.15595672 43.17242566 50.57828491 42 56 C36.06 56 30.12 56 24 56 C25.32 49.4 26.64 42.8 28 36 C22.06 35.67 16.12 35.34 10 35 C9.896875 36.2375 9.79375 37.475 9.6875 38.75 C9.04675093 44.65808332 7.51704346 50.2616182 6 56 C0.39 56 -5.22 56 -11 56 C-10.35653908 49.1497582 -9.17685205 42.55936006 -7.71484375 35.83984375 C-7.49429825 34.80936417 -7.27375275 33.77888458 -7.04652405 32.71717834 C-6.34765452 29.45638045 -5.64267971 26.19693843 -4.9375 22.9375 C-4.45988097 20.71427978 -3.98266338 18.49097328 -3.50585938 16.26757812 C-2.34187942 10.84404328 -1.17242566 5.42171509 0 0 Z " fill="#FFFFFF" transform="translate(308,578)"/>
<path d="M0 0 C0.93328125 -0.01224609 1.8665625 -0.02449219 2.828125 -0.03710938 C7.83439767 -0.04774593 11.93455979 0.20308299 16.625 2.1875 C16.1797115 7.46065333 15.54126837 12.20520224 13.625 17.1875 C12.92375 17.043125 12.2225 16.89875 11.5 16.75 C2.67534654 15.02343737 -5.13612102 13.75932308 -13.375 18.1875 C-18.50535486 22.42561923 -20.17827168 26.27093256 -21.1875 32.6875 C-21.48273556 35.85073819 -21.39005001 37.14947892 -20.1875 40.1875 C-18.10582667 42.48451885 -17.42469466 42.93335878 -14.375 43.1875 C-10.52846072 43.3248764 -7.06101601 43.36702512 -3.375 42.1875 C-2.715 39.8775 -2.055 37.5675 -1.375 35.1875 C-5.005 35.1875 -8.635 35.1875 -12.375 35.1875 C-11.715 31.8875 -11.055 28.5875 -10.375 25.1875 C-1.795 25.1875 6.785 25.1875 15.625 25.1875 C14.84125 29.23 14.0575 33.2725 13.25 37.4375 C13.00717285 38.70625977 12.7643457 39.97501953 12.51416016 41.28222656 C12.31612793 42.28737305 12.1180957 43.29251953 11.9140625 44.328125 C11.61556396 45.86774902 11.61556396 45.86774902 11.31103516 47.43847656 C10.67682328 49.97983803 9.99395542 51.96266998 8.625 54.1875 C-0.8524281 59.76043413 -14.89432592 59.9832459 -25.41796875 57.45703125 C-31.01731009 55.1591441 -34.65448816 51.56061978 -38.1875 46.6875 C-41.43396468 37.11897251 -39.53862162 27.17215718 -35.375 18.1875 C-29.87514395 8.78861055 -22.76323682 3.62500803 -12.43505859 0.6237793 C-8.3525499 -0.24081457 -4.15661681 0.002847 0 0 Z " fill="#FFFFFF" transform="translate(171.375,681.8125)"/>
<path d="M0 0 C5.61 0 11.22 0 17 0 C16.40412509 4.76699925 15.84311512 9.12709741 14.80859375 13.75 C14.47504883 15.28140625 14.47504883 15.28140625 14.13476562 16.84375 C13.66973938 18.94874276 13.20098498 21.05291535 12.72851562 23.15625 C11.48247934 28.91054 10.72400518 34.11211052 11 40 C14.07140431 41.81205858 16.02777299 42.22518386 19.5625 41.8125 C20.32691406 41.73644531 21.09132812 41.66039062 21.87890625 41.58203125 C24.44532965 40.87780089 25.27766317 40.00219497 27 38 C30.56954264 30.61420092 31.5966195 21.91143451 33.1875 13.9375 C33.46237738 12.58127608 33.73776429 11.22515533 34.01367188 9.86914062 C34.68077561 6.58043623 35.3410764 3.29035313 36 0 C41.94 0 47.88 0 54 0 C52.38621227 8.677416 50.72823855 17.34460964 49 26 C48.8242041 26.88204102 48.6484082 27.76408203 48.46728516 28.67285156 C46.79181913 36.84010796 45.10474079 43.9751642 39 50 C38.236875 50.763125 37.47375 51.52625 36.6875 52.3125 C27.7417131 57.92962201 17.30152384 58.28315103 7 57 C1.4935984 55.44946092 -1.90048163 53.31405854 -5.5625 48.9375 C-9.09466436 41.71959891 -8.20681514 34.88242902 -6.50390625 27.16796875 C-6.35090561 26.45014725 -6.19790497 25.73232574 -6.04026794 24.99275208 C-5.71826649 23.48866864 -5.39286668 21.98530904 -5.06420898 20.48266602 C-4.560465 18.17819051 -4.06746803 15.87161121 -3.57617188 13.56445312 C-3.26103627 12.09882497 -2.9453024 10.6333253 -2.62890625 9.16796875 C-2.48095108 8.47841599 -2.33299591 7.78886322 -2.18055725 7.07841492 C-1.11680357 2.23360713 -1.11680357 2.23360713 0 0 Z " fill="#FFFFFF" transform="translate(197,683)"/>
<path d="M0 0 C0.74886475 0.00523682 1.49772949 0.01047363 2.26928711 0.01586914 C3.07817383 0.0190918 3.88706055 0.02231445 4.72045898 0.02563477 C5.5705957 0.03401367 6.42073242 0.04239258 7.29663086 0.05102539 C8.15063477 0.05553711 9.00463867 0.06004883 9.88452148 0.06469727 C12.00108749 0.07652166 14.11761771 0.0944577 16.23413086 0.11352539 C18.03607662 5.92903237 19.15158605 11.75773988 20.17944336 17.75415039 C20.35418182 18.7581488 20.52892029 19.76214722 20.70895386 20.79656982 C21.07545366 22.9074395 21.44009564 25.01863248 21.80297852 27.13012695 C22.359838 30.3676366 22.92349619 33.60390982 23.48803711 36.84008789 C23.84390805 38.89470577 24.19939044 40.94939099 24.55444336 43.00415039 C24.80751755 44.45727631 24.80751755 44.45727631 25.06570435 45.9397583 C25.21941498 46.83789246 25.37312561 47.73602661 25.53149414 48.66137695 C25.66758087 49.45078674 25.8036676 50.24019653 25.94387817 51.05352783 C26.23413086 53.11352539 26.23413086 53.11352539 26.23413086 56.11352539 C20.29413086 56.11352539 14.35413086 56.11352539 8.23413086 56.11352539 C7.57413086 52.15352539 6.91413086 48.19352539 6.23413086 44.11352539 C-1.86802635 43.61444521 -1.86802635 43.61444521 -9.76586914 45.11352539 C-11.87873515 47.58046348 -11.87873515 47.58046348 -13.14086914 50.67602539 C-14.57446289 53.69946289 -14.57446289 53.69946289 -16.76586914 56.11352539 C-22.58842408 57.59685386 -28.86416213 56.73179946 -34.76586914 56.11352539 C-30.50566603 47.18024952 -25.6433575 38.71543145 -20.45336914 30.30102539 C-19.69634864 29.06590494 -18.93984184 27.8304695 -18.18383789 26.59472656 C-17.06698462 24.76936357 -15.94979439 22.94421873 -14.83065796 21.12025452 C-11.24753585 15.27965012 -7.73514693 9.39836782 -4.23461914 3.50805664 C-2.16836396 0.13940125 -2.16836396 0.13940125 0 0 Z M3.23413086 17.11352539 C1.89820289 19.42456149 0.56528655 21.73724294 -0.76586914 24.05102539 C-1.14743164 24.71038086 -1.52899414 25.36973633 -1.92211914 26.04907227 C-3.89095961 28.91121041 -3.89095961 28.91121041 -4.76586914 32.11352539 C-1.13586914 32.11352539 2.49413086 32.11352539 6.23413086 32.11352539 C5.57413086 27.16352539 4.91413086 22.21352539 4.23413086 17.11352539 C3.90413086 17.11352539 3.57413086 17.11352539 3.23413086 17.11352539 Z " fill="#FFFFFF" transform="translate(369.765869140625,682.886474609375)"/>
<path d="M0 0 C0.74886475 0.00523682 1.49772949 0.01047363 2.26928711 0.01586914 C3.07817383 0.0190918 3.88706055 0.02231445 4.72045898 0.02563477 C5.5705957 0.03401367 6.42073242 0.04239258 7.29663086 0.05102539 C8.15063477 0.05553711 9.00463867 0.06004883 9.88452148 0.06469727 C12.00108749 0.07652166 14.11761771 0.0944577 16.23413086 0.11352539 C18.03607662 5.92903237 19.15158605 11.75773988 20.17944336 17.75415039 C20.35418182 18.7581488 20.52892029 19.76214722 20.70895386 20.79656982 C21.07545366 22.9074395 21.44009564 25.01863248 21.80297852 27.13012695 C22.359838 30.3676366 22.92349619 33.60390982 23.48803711 36.84008789 C23.84390805 38.89470577 24.19939044 40.94939099 24.55444336 43.00415039 C24.80751755 44.45727631 24.80751755 44.45727631 25.06570435 45.9397583 C25.21941498 46.83789246 25.37312561 47.73602661 25.53149414 48.66137695 C25.66758087 49.45078674 25.8036676 50.24019653 25.94387817 51.05352783 C26.23413086 53.11352539 26.23413086 53.11352539 26.23413086 56.11352539 C20.29413086 56.11352539 14.35413086 56.11352539 8.23413086 56.11352539 C7.57413086 52.15352539 6.91413086 48.19352539 6.23413086 44.11352539 C-1.86802635 43.61444521 -1.86802635 43.61444521 -9.76586914 45.11352539 C-11.87873515 47.58046348 -11.87873515 47.58046348 -13.14086914 50.67602539 C-14.57446289 53.69946289 -14.57446289 53.69946289 -16.76586914 56.11352539 C-22.58842408 57.59685386 -28.86416213 56.73179946 -34.76586914 56.11352539 C-30.50566603 47.18024952 -25.6433575 38.71543145 -20.45336914 30.30102539 C-19.69634864 29.06590494 -18.93984184 27.8304695 -18.18383789 26.59472656 C-17.06698462 24.76936357 -15.94979439 22.94421873 -14.83065796 21.12025452 C-11.24753585 15.27965012 -7.73514693 9.39836782 -4.23461914 3.50805664 C-2.16836396 0.13940125 -2.16836396 0.13940125 0 0 Z M3.23413086 17.11352539 C1.89820289 19.42456149 0.56528655 21.73724294 -0.76586914 24.05102539 C-1.14743164 24.71038086 -1.52899414 25.36973633 -1.92211914 26.04907227 C-3.89095961 28.91121041 -3.89095961 28.91121041 -4.76586914 32.11352539 C-1.13586914 32.11352539 2.49413086 32.11352539 6.23413086 32.11352539 C5.57413086 27.16352539 4.91413086 22.21352539 4.23413086 17.11352539 C3.90413086 17.11352539 3.57413086 17.11352539 3.23413086 17.11352539 Z " fill="#FFFFFF" transform="translate(489.765869140625,577.886474609375)"/>
<path d="M0 0 C14.52 0 29.04 0 44 0 C42 11 42 11 41 12 C39.07332493 12.08748207 37.14348139 12.10697334 35.21484375 12.09765625 C34.04501953 12.09443359 32.87519531 12.09121094 31.66992188 12.08789062 C30.43822266 12.07951172 29.20652344 12.07113281 27.9375 12.0625 C26.08415039 12.05573242 26.08415039 12.05573242 24.19335938 12.04882812 C21.12885883 12.03699608 18.06445279 12.02051173 15 12 C14.34 15.3 13.68 18.6 13 22 C20.59 22 28.18 22 36 22 C34.125 33.875 34.125 33.875 33 35 C31.29227642 35.08713831 29.58101351 35.10700007 27.87109375 35.09765625 C26.83662109 35.09443359 25.80214844 35.09121094 24.73632812 35.08789062 C23.64771484 35.07951172 22.55910156 35.07113281 21.4375 35.0625 C19.7987793 35.05573242 19.7987793 35.05573242 18.12695312 35.04882812 C15.41791505 35.03699826 12.70898401 35.02051543 10 35 C9.67 37.97 9.34 40.94 9 44 C17.58 44 26.16 44 35 44 C34.01 47.96 33.02 51.92 32 56 C17.81 56 3.62 56 -11 56 C-9.875 45.875 -9.875 45.875 -8.96850586 41.66381836 C-8.76837387 40.7235228 -8.56824188 39.78322723 -8.36204529 38.81443787 C-8.14846878 37.83282181 -7.93489227 36.85120575 -7.71484375 35.83984375 C-7.49429825 34.80936417 -7.27375275 33.77888458 -7.04652405 32.71717834 C-6.34765452 29.45638045 -5.64267971 26.19693843 -4.9375 22.9375 C-4.45988097 20.71427978 -3.98266338 18.49097328 -3.50585938 16.26757812 C-2.34262414 10.84386739 -1.17112583 5.42203628 0 0 Z " fill="#FFFFFF" transform="translate(368,578)"/>
<path d="M0 0 C0.80759766 -0.00773438 1.61519531 -0.01546875 2.44726562 -0.0234375 C7.80431217 -0.00617063 12.41592519 0.7609795 17.5625 2.25 C17.28098084 4.37636813 16.98696737 6.50108528 16.6875 8.625 C16.52507812 9.80835938 16.36265625 10.99171875 16.1953125 12.2109375 C15.5625 15.25 15.5625 15.25 13.5625 17.25 C12.92183594 17.0334375 12.28117187 16.816875 11.62109375 16.59375 C4.50751063 14.30383353 -1.40503886 12.84032187 -8.4375 16.25 C-8.4375 17.24 -8.4375 18.23 -8.4375 19.25 C-7.34050781 19.61351562 -6.24351562 19.97703125 -5.11328125 20.3515625 C-3.65850933 20.85838627 -2.20410099 21.36625449 -0.75 21.875 C-0.02876953 22.11089844 0.69246094 22.34679687 1.43554688 22.58984375 C6.75164527 24.48324866 9.39159307 26.55123735 12.5625 31.25 C14.23640297 37.63175509 13.30022212 42.29545439 10.5625 48.25 C7.40054022 53.51993297 2.51548179 56.10042169 -3.28442383 57.78710938 C-7.19116542 58.62702116 -11.14335245 58.47666434 -15.125 58.5 C-15.98544922 58.520625 -16.84589844 58.54125 -17.73242188 58.5625 C-23.82543574 58.59923256 -28.79067873 57.52623803 -34.4375 55.25 C-34.12897815 53.291036 -33.8155582 51.33284287 -33.5 49.375 C-33.32597656 48.28445313 -33.15195313 47.19390625 -32.97265625 46.0703125 C-32.4375 43.25 -32.4375 43.25 -31.4375 41.25 C-30.84582031 41.38277344 -30.25414062 41.51554688 -29.64453125 41.65234375 C-28.01234211 42.01712338 -26.37949832 42.37898321 -24.74609375 42.73828125 C-23.09846679 43.10349129 -21.45422484 43.48411313 -19.8125 43.875 C-15.48782001 44.55784421 -10.55110569 44.99037164 -6.4375 43.25 C-6.1075 42.26 -5.7775 41.27 -5.4375 40.25 C-7.20554349 36.71391302 -12.10124804 35.9952861 -15.71484375 34.72460938 C-20.84014579 32.80639712 -24.88835447 30.34829105 -27.4375 25.25 C-28.26005702 18.75045105 -27.26521139 13.59753797 -23.4375 8.25 C-16.88117308 0.93093208 -9.45085913 -0.09007967 0 0 Z " fill="#FFFFFF" transform="translate(279.4375,681.75)"/>
<path d="M0 0 C0.80759766 -0.00773438 1.61519531 -0.01546875 2.44726562 -0.0234375 C7.80431217 -0.00617063 12.41592519 0.7609795 17.5625 2.25 C17.28098084 4.37636813 16.98696737 6.50108528 16.6875 8.625 C16.52507813 9.80835938 16.36265625 10.99171875 16.1953125 12.2109375 C15.5625 15.25 15.5625 15.25 13.5625 17.25 C12.92183594 17.0334375 12.28117188 16.816875 11.62109375 16.59375 C4.50751063 14.30383353 -1.40503886 12.84032187 -8.4375 16.25 C-8.4375 17.24 -8.4375 18.23 -8.4375 19.25 C-7.34050781 19.61351562 -6.24351562 19.97703125 -5.11328125 20.3515625 C-3.65850933 20.85838627 -2.20410099 21.36625449 -0.75 21.875 C-0.02876953 22.11089844 0.69246094 22.34679687 1.43554688 22.58984375 C6.75164527 24.48324866 9.39159307 26.55123735 12.5625 31.25 C14.23640297 37.63175509 13.30022212 42.29545439 10.5625 48.25 C7.40054022 53.51993297 2.51548179 56.10042169 -3.28442383 57.78710938 C-7.19116542 58.62702116 -11.14335245 58.47666434 -15.125 58.5 C-15.98544922 58.520625 -16.84589844 58.54125 -17.73242188 58.5625 C-23.82543574 58.59923256 -28.79067873 57.52623803 -34.4375 55.25 C-34.12897815 53.291036 -33.8155582 51.33284287 -33.5 49.375 C-33.32597656 48.28445313 -33.15195312 47.19390625 -32.97265625 46.0703125 C-32.4375 43.25 -32.4375 43.25 -31.4375 41.25 C-30.84582031 41.38277344 -30.25414062 41.51554688 -29.64453125 41.65234375 C-28.01234211 42.01712338 -26.37949832 42.37898321 -24.74609375 42.73828125 C-23.09846679 43.10349129 -21.45422484 43.48411313 -19.8125 43.875 C-15.48782001 44.55784421 -10.55110569 44.99037164 -6.4375 43.25 C-6.1075 42.26 -5.7775 41.27 -5.4375 40.25 C-7.20554349 36.71391302 -12.10124804 35.9952861 -15.71484375 34.72460938 C-20.84014579 32.80639712 -24.88835447 30.34829105 -27.4375 25.25 C-28.26005702 18.75045105 -27.26521139 13.59753797 -23.4375 8.25 C-16.88117308 0.93093208 -9.45085913 -0.09007967 0 0 Z " fill="#FFFFFF" transform="translate(553.4375,576.75)"/>
<path d="M0 0 C5.61 0 11.22 0 17 0 C18.70165519 9.43645152 20.32588812 18.83200485 21.5703125 28.33984375 C21.85858105 30.96621673 21.85858105 30.96621673 23 33 C23.39791748 32.28457031 23.79583496 31.56914063 24.20581055 30.83203125 C25.70448298 28.13986267 27.20502805 25.44874861 28.70678711 22.75830078 C29.66726938 21.03627108 30.62564974 19.31306956 31.58398438 17.58984375 C32.81437164 15.38674194 34.05722423 13.19054945 35.31323242 11.00195312 C36.34146183 9.17200541 37.32583021 7.31529655 38.2277832 5.41992188 C39.3276966 3.25041429 40.21259745 1.65073103 42 0 C45.33104578 -0.93745521 48.38698857 -0.76566233 51.8125 -0.5 C52.69615234 -0.46390625 53.57980469 -0.4278125 54.49023438 -0.390625 C56.66202972 -0.29670953 58.83158115 -0.15321507 61 0 C55.98716044 9.36458081 50.66921618 18.5328443 45.16137695 27.61450195 C44.44291059 28.80252751 43.72505275 29.9909213 43.0078125 31.1796875 C42.6568602 31.76133163 42.3059079 32.34297577 41.94432068 32.94224548 C39.39227913 37.22177994 37.15896406 41.58458044 35.11279297 46.12548828 C31.00017591 53.51805482 31.00017591 53.51805482 28 56 C24.66312272 56.86989302 21.56371538 56.70104097 18.14453125 56.45703125 C17.26398071 56.42403931 16.38343018 56.39104736 15.47619629 56.35705566 C13.31588529 56.27134648 11.15746054 56.14019167 9 56 C7.7122287 48.82943959 6.43117799 41.65770193 5.15478516 34.48510742 C4.71980847 32.04537802 4.2832959 29.60592193 3.84521484 27.16674805 C3.21567956 23.66005092 2.59168006 20.15240696 1.96875 16.64453125 C1.77188599 15.55477493 1.57502197 14.46501862 1.37219238 13.34223938 C1.19200562 12.32155869 1.01181885 11.30087799 0.82617188 10.24926758 C0.66628784 9.35436111 0.50640381 8.45945465 0.3416748 7.53742981 C0 5 0 5 0 0 Z " fill="#FFFFFF" transform="translate(401,683)"/>
<path d="M0 0 C0.85561523 -0.00563965 1.71123047 -0.0112793 2.59277344 -0.01708984 C7.69951243 0.04146002 11.97400226 0.66911308 16.8125 2.3125 C16.39160004 7.91711531 15.89636889 13.03336547 13.8125 18.3125 C13.11125 18.0959375 12.41 17.879375 11.6875 17.65625 C3.4717468 15.24510504 -3.28229341 13.91722704 -11.4296875 17.3359375 C-15.11874325 19.38541292 -16.70677603 22.27894346 -18.4375 26 C-19.43348 30.39891167 -19.90437183 34.83397816 -19.1875 39.3125 C-17.51855928 41.43403481 -16.58531855 42.18747131 -14 43 C-7.64523707 43.70608477 -2.39794538 43.33983479 3.734375 41.65234375 C6.06352402 41.27144908 7.58447893 41.59491664 9.8125 42.3125 C8.39000164 53.7742397 8.39000164 53.7742397 5.2421875 56.84375 C-3.72631965 60.36081163 -17.63203747 59.8526345 -26.4440918 56.17285156 C-31.22568328 53.81319208 -35.0952674 50.26941675 -37.6875 45.625 C-39.58561343 33.0499985 -37.418808 21.69170504 -29.875 11.28125 C-21.68771527 1.72941781 -12.03824377 0.07646797 0 0 Z " fill="#FFFFFF" transform="translate(285.1875,576.6875)"/>
<path d="M0 0 C0.85561523 -0.00563965 1.71123047 -0.0112793 2.59277344 -0.01708984 C7.69951243 0.04146002 11.97400226 0.66911308 16.8125 2.3125 C16.39160004 7.91711531 15.89636889 13.03336547 13.8125 18.3125 C13.11125 18.0959375 12.41 17.879375 11.6875 17.65625 C3.4717468 15.24510504 -3.28229341 13.91722704 -11.4296875 17.3359375 C-15.11874325 19.38541292 -16.70677603 22.27894346 -18.4375 26 C-19.43348 30.39891167 -19.90437183 34.83397816 -19.1875 39.3125 C-17.51855928 41.43403481 -16.58531855 42.18747131 -14 43 C-7.64523707 43.70608477 -2.39794538 43.33983479 3.734375 41.65234375 C6.06352402 41.27144908 7.58447893 41.59491664 9.8125 42.3125 C8.39000164 53.7742397 8.39000164 53.7742397 5.2421875 56.84375 C-3.72631965 60.36081163 -17.63203747 59.8526345 -26.4440918 56.17285156 C-31.22568328 53.81319208 -35.0952674 50.26941675 -37.6875 45.625 C-39.58561343 33.0499985 -37.418808 21.69170504 -29.875 11.28125 C-21.68771527 1.72941781 -12.03824377 0.07646797 0 0 Z " fill="#FFFFFF" transform="translate(170.1875,576.6875)"/>
<path d="M0 0 C16.17 0 32.34 0 49 0 C47 11 47 11 46 12 C43.30345146 12.07319621 40.63308542 12.09242537 37.9375 12.0625 C36.79958008 12.05573242 36.79958008 12.05573242 35.63867188 12.04882812 C33.75908129 12.0370068 31.87953101 12.01907078 30 12 C29.86078125 13.70349609 29.86078125 13.70349609 29.71875 15.44140625 C28.95898433 22.269934 27.4351628 28.95948772 25.98876953 35.66821289 C25.49614279 37.95540849 25.01127915 40.24415448 24.52734375 42.53320312 C24.21659779 43.98967983 23.90541588 45.44606361 23.59375 46.90234375 C23.37652283 47.92726173 23.37652283 47.92726173 23.15490723 48.97288513 C22.11566611 53.76866778 22.11566611 53.76866778 21 56 C15.39 56 9.78 56 4 56 C5.39909382 46.08621906 7.36866262 36.42963548 9.625 26.6875 C9.95354734 25.2533519 10.28167464 23.8191075 10.609375 22.38476562 C11.40067008 18.92185053 12.2004708 15.46106357 13 12 C7.72 12 2.44 12 -3 12 C-2.01 8.04 -1.02 4.08 0 0 Z " fill="#FFFFFF" transform="translate(303,683)"/>
<path d="M0 0 C13.75009624 0.74255641 26.52694994 3.04730206 39 9 C39.64146973 9.30099609 40.28293945 9.60199219 40.94384766 9.91210938 C48.79995892 13.61562548 56.41583383 17.2388546 63 23 C63 23.66 63 24.32 63 25 C47.96025901 21.85574931 32.99689701 17.35409007 19 11 C17.44119043 10.33728285 15.88118456 9.67737598 14.3203125 9.01953125 C12.65075543 8.30535627 10.98148471 7.59051152 9.3125 6.875 C8.5083667 6.53799072 7.7042334 6.20098145 6.87573242 5.85375977 C6.12912354 5.52819092 5.38251465 5.20262207 4.61328125 4.8671875 C3.94079346 4.57956543 3.26830566 4.29194336 2.57543945 3.99560547 C1 3 1 3 0 0 Z " fill="#FAFAFA" transform="translate(813,636)"/>
<path d="M0 0 C4 1 4 1 4 1 Z " fill="#495555" transform="translate(668,293)"/>
<path d="M0 0 C3 1 3 1 3 1 Z " fill="#6B6D6A" transform="translate(828,637)"/>
<path d="M0 0 C2 1 2 1 2 1 Z " fill="#8A8C92" transform="translate(678,706)"/>
<path d="M0 0 C2 1 2 1 2 1 Z " fill="#6C6B6B" transform="translate(817,635)"/>
<path d="M0 0 C2 1 2 1 2 1 Z " fill="#E9D8CA" transform="translate(225,508)"/>
<path d="" fill="#E1EBEC" transform="translate(0,0)"/>
<path d="M0 0 C2 1 2 1 2 1 Z " fill="#E8DAD6" transform="translate(188,458)"/>
<path d="" fill="#908993" transform="translate(0,0)"/>
<path d="" fill="#DAD7DD" transform="translate(0,0)"/>
<path d="" fill="#D8D8DA" transform="translate(0,0)"/>
<path d="" fill="#686B6B" transform="translate(0,0)"/>
<path d="" fill="#585144" transform="translate(0,0)"/>
<path d="" fill="#DBD1DA" transform="translate(0,0)"/>
<path d="" fill="#EBD7D7" transform="translate(0,0)"/>
<path d="" fill="#999D90" transform="translate(0,0)"/>
<path d="" fill="#9B9B8E" transform="translate(0,0)"/>
</svg>
